<svg xmlns="http://www.w3.org/2000/svg" style="background: transparent; background-color: transparent;" xmlns:xlink="http://www.w3.org/1999/xlink" version="1.1" width="640px" height="801px" viewBox="-0.5 -0.5 640 801" content="&lt;mxfile&gt;&lt;diagram id=&quot;ZnJwoZ46GcJeLG391vwS&quot; name=&quot;Page-1&quot;&gt;7Z1Jk6M4FoB/jSN6DuNgBx/LlZ1Th+6qns6K6L6ShrSJwsaDyXJm//oRyWJ4ki2Bn+QF6pBly1jIet/T8hYxMT+v3/6T+tvV70kQxhNDC94m5sPEMBzLJH/zgveiwNVnRcEyjYKiSD8UPEX/hGWhVpa+RkG4a12YJUmcRdt24SLZbMJF1irz0zTZty97SeL2Xbf+MqQKnhZ+TJf+FQXZqij1DPdQ/iWMlqvqzrpT/r61X11c/pLdyg+SfaPI/HVifk6TJCterd8+h3Hed1W/FN97PPJp3bA03GQiX7C94hs//fi1/HFlw7L36tcu0+R1OzHnuyxNftQ/WCcl5XfDNAvfWB3vP1d1aHTD9PrnEkzCZB1m6Tu5pKzIK7/x3n67P3S3XdGwana1Uxb6pYiXdc2HXiAvyo440oszfqcsXtOfYVD2Q7gJPuVYkbebZEOumK+ydXz48DHK7/Wg1V0WBhRgh44pZEL3TPO3M356VZaGsZ9FP9v1s7qjvMMfSUTuXHe8fqTnqxp2yWu6CMsvNckC9dTKeqSezE+XYUbVQ/rRf29cts0v2J1o7qx9mwqAo83SWp+TF8UdD2DUPS7EStXBg2SFJ2NhViwlrNTDkCgrJjIrxpBZ4chYmBVHDSt2R1YcZFacAbOiI7HCm8uw5qCOrOguMivugFnhjQfC44qrZlxxOo4r2KwILPjvlxWOjIVZUTOuwOZyWfGQWRnyPognY2FWZmpY8TqyMsNlpVwqD5MVJFR4yx6s5YreDRUdeRtkStwyH7NRXSM8Z9KiaA7qxoqNi4o16B0zZ+YQBcXU1JDS0RJnIlviHHvArPBkLMyKGqstbC6XFR2ZlSFbV3gyFmbFUMNKx+WKaSCzMmTrCk/GwqyYaljpuFwxkZe2zpCtKzwZC7OiZhsEm8tlxUJmZcjWFZ6MhVmx1bBidWQFeR9UGQKHyQpHxsKsqPEcwuZyWUH2HLpDjkjgyViYFTXeINhcLivI3iDXGDIrSN4gU40lDjaXywqyN8g1h8wKkonfVOMNgs3lsoLsDXKtIbOCZLe11NhtYXN5rFjIdlt3yHZbnoyFWVFjt4XN5bKCbLd1h2y35clYmBU1dlvYXC4ryHZbvWJ1mLAgGW4tNYZb2FwuLMiGW10b8q6ZJ2RhWNRYbmFzubAgW25NiVb+F/LycxIn6Uc1ZqAtwtCoA1san9iOrbt5VXUK2cfX42T/aROtCQ3JZlLFxPhp9tiot2xDeWNQutv42+9J0YNVk94e/N2qfEf6yf81iKoPn/3FjzxBbBN8e83iKK+ifdPG7/q29RdRlgstH5thsI5NSpL6CktQcY5kkV0k7qteHZ0bT0pVJCnyCyzlufHzIGiQmzSBvVWw6Rn9MfXXISn6LdwsicTzacSJiZTnEXmxzF98rUpI7XUhpa9Z+Ja19dKPo2WuQgvCWkgUZJ7nOUYLP/5UfrCOgiD/+ny/irLwiaCb17VP/TxZ8kMlPgaAD/qTTVamsepG+f7RX0dx3lHfo3VIhKZ9Dffk75/J2t+cyq0Uz6HUwWq97r+GdtQJk031MAB+fZIobYM/SDbGxWd/FxajTDF0MMobsoGjS+f59pqGjdq7c+6wQVV0ZNjoo3n0xusbYTMmrJ/Svf8OV/fAUoiVwewyEDMxVE8gYoWteifiatk6CRXx2lUPiqUOLjo3vZmqCFH3WIEChVoF0c+DVhVFOd7k4pdCI0jp/17zwwTmLNLrD1tsVIWLYmH4Ke/15fMvukZuSxqrNV/8q7hzXU3RlieipH7c0P2iUe2GkmJG86/0FzVGNka99PVvzIHPnmcT+6Fjv1xssLTOHAnBJrCh4B5DwVFObnDoBSIDrL+iTb5j6sqhqOz3YrK/HiHn7xs7S+fjn/yZspoZLUFAoDWh19Qo4MQc6NToIc2M3CkWcWak3YxfkuaK1PHXOf6b592Wq8hgcnDMYko4/F/MDNrB4vHvxley1N/sKlkyBoUvg10Jw00KYz5g7UExFsKmwB4UyVD3rAfBy8Go1fhE11xzNhrqrmrZ39tSBwNBpVnqXPZ9RE/Q4VnqYFIFtqXOlJg0ATVPC83QYWmeFnqa542ad0nNMzQkzYOhB7I0zzC7aR5MZeNq3mnNPlvzLImOTKB5L37g+guW5j1bjq1Zo+ZdVPMcLM3jVSQpgZireU43zYNuY3TNkxhvQmveLLBZmueHlm4ao+ZdUvNgFmJvzbN5FUlKWeFpHozW4Wreac0+P3rHEDDrFMfYHtvPop9Y61Y1NJgz5B1Zq11VTIqIhhYyU66jlXisqeHZrm6Vf2f9NBQs5ji1yjmTxbOnhzuSv8bpMQWqIq4m6uqWn7fNYS+A+tpg1XB56YOldF2dve8u4OuISd9jVxXRB/NuNW9qNwdG73SjgSba7rQ5qOqWg8zqZdNeLk1eN0T6RmUoIo+d8HW0kcBi5JziFGFtLJCLJ3ttrIOtusPw+TIjEXEWxzIf6NDdDySkndZFtLMC2JjanuZYtu7oZG9n9lNGmIp/slK0g8XAHGBO8+SK+rb6yRaDGcTQpofm5jOCi6yZ6gxGt41lH6CEFyswA1MFph1T+ZGzs3WZDy25R/C6MSJMHsy6UkEetUezrGljiPM0+3Sbge3B1KYzx3UtfWbalmd6beMDAqnqdnT3QWonpoRJvcRUDjenHedyuB103KnWQNXC5VTE6yp7kU05/FzGInvGWmRjRFbqMs9q7u54FlFV6zJeovfWpN49BKktZVgNlvZB5ePtadsDBPKCxRLw74xsCTPScwcnCTU4zsNHVp7epCGfnkfWQyNqZ2zK+qLmKUGt474Lhi5joybRBHyPqHEYEUVtpgQ1eAKbexo1eAgXNmoSD066R9Q4jPQ1LkliDcLDcUDo2OE3lrpo77ugi4eFMF66Erxgc7l8oY9e6oKb7oMvDhfCfBlq+IKbTc5cCZuFjps6d+F94MbBpK9BXBZuHc+ag83C3gYwTjUacetg4+6Nm6UGN+iTtjm4wfxpbNyuKkHoBnDjYCKMm60GN2hOszi4gWYhP7lEFzkHbMRNHJO+PjtZuMGoS5ODG4wEw8ZNqaeAl4R1A7gh2W9h+Kws3OADUzjOAtgs5Oen6IwTSEbcTuHGwaRviLks3KDDQOfgxn5MCB5uSj0Gd4AbkssARnjLwg06DXjn854MPEfATcBrID2qBezW7WoGaEa1sE7SxAkdN9Q5TgQOMhHRuEJoyjWujWCP4z1YJEuOapnp01aKj3myiWAfb4MvG7i6Z1zVCTpXDJ4YQD0TeiVxCDdNFkgBck62EayBQfqvjhzaaKhzvtwFiEhPFaRizuWQ2PFBceiZCAozs+4BLh4VfT17suZbKtvAmDanTO/0QAdbaYBvY6dKVjP8SKMgjUgPmaKyFhQ5/uDUaXRqJfbRGabCrKy7oA/pqVXQYyKLPugH5JkuQbNkH0ig8rDcu8APaccBPSiy8KPSqTrtOah0qlMTOQKM6tw49wEjB6LemX5qvIYzOLZ1aiQ8QAM5Td9U5+O5DxY5DPV1KcpiEXpAOxkFKQcjOHEGeYci8gBk2Rb5o2egcw9zgc8n62WRt5UGA2P4wNybtMhLfqJ425Mm2Ah0973SSN8bZkmMCeFjui7h7OmYwowdmMR8NNWI2lHpIZmW1FiWoGGJEyYCPYnYqCmN8L191LCefq4EtY5WJGqthoyaMaJ2AS+1GpMRtBhxQntBo7DzFpybi+y9LGpIFiE1BiEqIOI0avDJH9io3VxU72VRQzL4qLH3wAhyTjoWjADGRu3mInovixpSdA07Tvs6jpvBY0vpoR+3zxYHip7nyygK3BI7XwaPLaVHftw+WxworiwqEB4ow8uQhweEYMM2mvw7wYYWJSjZB3AMH16GPGgW+vJ/9Ap0ww3JLXCxoFQObtSZ17i4VavEETdB3G496pSDm2TvgDt6B7rhduNhpryUZdAsbL9nGVQ94iaK262HlXJwA83CjuhwRy9BN9xuPHCUQ5sjmTYBKwgNWODvVjV/Ddry8j/8LAvTzUeJoZk1XdXjsEWpuiRTwDRlzrx+TMHjt2H44BGmeglSwMIwPEGiSVKpKAV278MTJZynez+TnjqeUJcnyoqaUZQtZQL2izoeu7NWwopkilJg17lb+dv85UscvpUybS7PFrG/20WLtlDFHstckrEjPyh7iv7Jb+IUlTfe0SRU8rRvgApoRLWMvgoOKnIFl3K9qBDYHCJQceTRbkOgAj4TrDcVcCUtc6wQ2MNhUMFOthoAFTBeuTcVVNA8rAiTCoGgLAQqjhwiOwQqPCwqQEU2XKBgUiEQP4VDBcvWMwAqqGy/vlRQFcHz+TCpEIh8Gleb51BB+eB6UmFTdkOJVAhY68bV5jlUwEVi37ECUkFVhEmFgOlvXG2ek/MCPYx97RWQCqoiTCoErIjjavMcKuAiES4H+lJBVYRIRRUXOa42JVFhw51p7ww5aPiQaMWa0bbNh8fvFBhZ+Ja1xe7H0TK3RS9I54dEwvP8vI5o4cefyg/WURDkX5/vV1EWPm39RV7XPvW3pCxNXjfBh6H7wzmdbCoodKN8/+ivozjvgO/ROtyR1nwN9+Tvn8na39QwMM4IET8LhJJXNSQ3cLEYuJjacTKETwKZGWO/v4P3Svqdts8Ntd8dxtk38vqdtoANtt89lf1O25iG2u8u4+kL8vqdZcVx4ryTI/Jimb/4uyohtdWFE3tOXfhjYpA7amv29Q8XlKalTprwsDKGFrEO7sKRJsv6cr4056yv6IOVKGM+Yj0cBUeiLMuJJIkaQ5Wow1jZyZMoy+ohSaLmUCVqM/ZIsiRqVOOBColaQ5WoxVgVIUmUvE2TJGsaJ0g/rH5PgjC/4v8=&lt;/diagram&gt;&lt;/mxfile&gt;"><defs/><g><g/><g><path d="M 260 80 Q 270 160 275 80 Q 280 0 290 80" fill="none" stroke="#000000" stroke-miterlimit="10" pointer-events="stroke" style="stroke: light-dark(rgb(0, 0, 0), rgb(255, 255, 255));"/></g><g><path d="M 290 80 Q 300 160 305 80 Q 310 0 320 80" fill="none" stroke="#000000" stroke-miterlimit="10" pointer-events="stroke" style="stroke: light-dark(rgb(0, 0, 0), rgb(255, 255, 255));"/></g><g><path d="M 320 80 Q 330 160 335 80 Q 340 0 340 80" fill="none" stroke="#000000" stroke-miterlimit="10" pointer-events="stroke" style="stroke: light-dark(rgb(0, 0, 0), rgb(255, 255, 255));"/></g><g><path d="M 220 80 Q 230 160 240 80 Q 250 0 260 80" fill="none" stroke="#000000" stroke-miterlimit="10" pointer-events="stroke" style="stroke: light-dark(rgb(0, 0, 0), rgb(255, 255, 255));"/></g><g><path d="M 340 80 Q 340 160 345 80 Q 350 0 350 80" fill="none" stroke="#000000" stroke-miterlimit="10" pointer-events="stroke" style="stroke: light-dark(rgb(0, 0, 0), rgb(255, 255, 255));"/></g><g><path d="M 350 80 Q 350 160 355 80 Q 360 0 360 80" fill="none" stroke="#000000" stroke-miterlimit="10" pointer-events="stroke" style="stroke: light-dark(rgb(0, 0, 0), rgb(255, 255, 255));"/></g><g><path d="M 360 80 Q 360 160 365 80 Q 370 0 370 80" fill="none" stroke="#000000" stroke-miterlimit="10" pointer-events="stroke" style="stroke: light-dark(rgb(0, 0, 0), rgb(255, 255, 255));"/></g><g><path d="M 160 80 Q 190 160 200 80 Q 210 0 220 80" fill="none" stroke="#000000" stroke-miterlimit="10" pointer-events="stroke" style="stroke: light-dark(rgb(0, 0, 0), rgb(255, 255, 255));"/></g><g><path d="M 80 80 Q 100 160 115 80 Q 130 0 160 80" fill="none" stroke="#000000" stroke-miterlimit="10" pointer-events="stroke" style="stroke: light-dark(rgb(0, 0, 0), rgb(255, 255, 255));"/></g><g><path d="M 370 80 Q 370 160 375 80 Q 380 0 380 80" fill="none" stroke="#000000" stroke-miterlimit="10" pointer-events="stroke" style="stroke: light-dark(rgb(0, 0, 0), rgb(255, 255, 255));"/></g><g><path d="M 380 80 Q 380 160 385 80 Q 390 0 390 80" fill="none" stroke="#000000" stroke-miterlimit="10" pointer-events="stroke" style="stroke: light-dark(rgb(0, 0, 0), rgb(255, 255, 255));"/></g><g><path d="M 390 80 Q 390 160 395 80 Q 400 0 400 80" fill="none" stroke="#000000" stroke-miterlimit="10" pointer-events="stroke" style="stroke: light-dark(rgb(0, 0, 0), rgb(255, 255, 255));"/></g><g><path d="M 400 80 Q 400 160 405 80 Q 410 0 410 80" fill="none" stroke="#000000" stroke-miterlimit="10" pointer-events="stroke" style="stroke: light-dark(rgb(0, 0, 0), rgb(255, 255, 255));"/></g><g><path d="M 410 80 Q 410 160 415 80 Q 420 0 420 80" fill="none" stroke="#000000" stroke-miterlimit="10" pointer-events="stroke" style="stroke: light-dark(rgb(0, 0, 0), rgb(255, 255, 255));"/></g><g><path d="M 420 80 Q 420 160 425 80 Q 430 0 430 80" fill="none" stroke="#000000" stroke-miterlimit="10" pointer-events="stroke" style="stroke: light-dark(rgb(0, 0, 0), rgb(255, 255, 255));"/></g><g><path d="M 430 80 Q 430 160 435 80 Q 440 0 440 80" fill="none" stroke="#000000" stroke-miterlimit="10" pointer-events="stroke" style="stroke: light-dark(rgb(0, 0, 0), rgb(255, 255, 255));"/></g><g><path d="M 440 80 Q 440 160 445 80 Q 450 0 450 80" fill="none" stroke="#000000" stroke-miterlimit="10" pointer-events="stroke" style="stroke: light-dark(rgb(0, 0, 0), rgb(255, 255, 255));"/></g><g><path d="M 450 80 Q 450 160 455 80 Q 460 0 460 80" fill="none" stroke="#000000" stroke-miterlimit="10" pointer-events="stroke" style="stroke: light-dark(rgb(0, 0, 0), rgb(255, 255, 255));"/></g><g><path d="M 460 80 Q 460 160 465 80 Q 470 0 470 80" fill="none" stroke="#000000" stroke-miterlimit="10" pointer-events="stroke" style="stroke: light-dark(rgb(0, 0, 0), rgb(255, 255, 255));"/></g><g><path d="M 470 80 Q 470 160 475 80 Q 480 0 480 80" fill="none" stroke="#000000" stroke-miterlimit="10" pointer-events="stroke" style="stroke: light-dark(rgb(0, 0, 0), rgb(255, 255, 255));"/></g><g><path d="M 480 80 Q 480 160 485 80 Q 490 0 490 80" fill="none" stroke="#000000" stroke-miterlimit="10" pointer-events="stroke" style="stroke: light-dark(rgb(0, 0, 0), rgb(255, 255, 255));"/></g><g><path d="M 490 80 Q 490 160 495 80 Q 500 0 500 80" fill="none" stroke="#000000" stroke-miterlimit="10" pointer-events="stroke" style="stroke: light-dark(rgb(0, 0, 0), rgb(255, 255, 255));"/></g><g><path d="M 500 80 Q 500 160 505 80 Q 510 0 510 80" fill="none" stroke="#000000" stroke-miterlimit="10" pointer-events="stroke" style="stroke: light-dark(rgb(0, 0, 0), rgb(255, 255, 255));"/></g><g><path d="M 510 80 Q 510 160 515 80 Q 520 0 520 80" fill="none" stroke="#000000" stroke-miterlimit="10" pointer-events="stroke" style="stroke: light-dark(rgb(0, 0, 0), rgb(255, 255, 255));"/></g><g><path d="M 80 320 Q 110 320 145 265 Q 180 210 215 265 Q 250 320 280 320" fill="none" stroke="#56517e" stroke-opacity="0.4" stroke-width="5" stroke-miterlimit="10" pointer-events="stroke" style="stroke: light-dark(rgb(86, 81, 126), rgb(164, 160, 198));"/></g><g><rect x="100" y="170" width="160" height="20" fill="none" stroke="none" pointer-events="all"/></g><g><g transform="translate(-0.5 -0.5)"><switch><foreignObject style="overflow: visible; text-align: left;" pointer-events="none" width="100%" height="100%" requiredFeatures="http://www.w3.org/TR/SVG11/feature#Extensibility"><div xmlns="http://www.w3.org/1999/xhtml" style="display: flex; align-items: unsafe center; justify-content: unsafe center; width: 158px; height: 1px; padding-top: 180px; margin-left: 101px;"><div style="box-sizing: border-box; font-size: 0; text-align: center; color: #000000; "><div style="display: inline-block; font-size: 12px; font-family: &quot;Times New Roman&quot;; color: light-dark(#000000, #ffffff); line-height: 1.2; pointer-events: all; white-space: normal; word-wrap: normal; ">Frame Length <i>N</i></div></div></div></foreignObject><text x="180" y="184" fill="light-dark(#000000, #ffffff)" font-family="&quot;Times New Roman&quot;" font-size="12px" text-anchor="middle">Frame Length N</text></switch></g></g><g><path d="M 80 190 L 280 190" fill="none" stroke="#000000" stroke-miterlimit="10" pointer-events="stroke" style="stroke: light-dark(rgb(0, 0, 0), rgb(255, 255, 255));"/><path d="M 80 186 L 80 194" fill="none" stroke="#000000" stroke-miterlimit="10" pointer-events="all" style="stroke: light-dark(rgb(0, 0, 0), rgb(255, 255, 255));"/><path d="M 280 194 L 280 186" fill="none" stroke="#000000" stroke-miterlimit="10" pointer-events="all" style="stroke: light-dark(rgb(0, 0, 0), rgb(255, 255, 255));"/></g><g><rect x="140" y="200" width="70" height="30" fill="none" stroke="none" pointer-events="all"/></g><g><g transform="translate(-0.5 -0.5)"><switch><foreignObject style="overflow: visible; text-align: left;" pointer-events="none" width="100%" height="100%" requiredFeatures="http://www.w3.org/TR/SVG11/feature#Extensibility"><div xmlns="http://www.w3.org/1999/xhtml" style="display: flex; align-items: unsafe center; justify-content: unsafe center; width: 68px; height: 1px; padding-top: 215px; margin-left: 141px;"><div style="box-sizing: border-box; font-size: 0; text-align: center; color: #000000; "><div style="display: inline-block; font-size: 12px; font-family: &quot;Times New Roman&quot;; color: light-dark(#000000, #ffffff); line-height: 1.2; pointer-events: all; white-space: normal; word-wrap: normal; ">Overlap Length <i>Q</i></div></div></div></foreignObject><text x="175" y="219" fill="light-dark(#000000, #ffffff)" font-family="&quot;Times New Roman&quot;" font-size="12px" text-anchor="middle">Overlap Leng...</text></switch></g></g><g><path d="M 140 230 L 210 230" fill="none" stroke="#000000" stroke-miterlimit="10" pointer-events="stroke" style="stroke: light-dark(rgb(0, 0, 0), rgb(255, 255, 255));"/><path d="M 140 226 L 140 234" fill="none" stroke="#000000" stroke-miterlimit="10" pointer-events="all" style="stroke: light-dark(rgb(0, 0, 0), rgb(255, 255, 255));"/><path d="M 210 234 L 210 226" fill="none" stroke="#000000" stroke-miterlimit="10" pointer-events="all" style="stroke: light-dark(rgb(0, 0, 0), rgb(255, 255, 255));"/></g><g><rect x="0" y="0" width="80" height="160" fill="none" stroke="none" pointer-events="all"/></g><g><g transform="translate(-0.5 -0.5)"><switch><foreignObject style="overflow: visible; text-align: left;" pointer-events="none" width="100%" height="100%" requiredFeatures="http://www.w3.org/TR/SVG11/feature#Extensibility"><div xmlns="http://www.w3.org/1999/xhtml" style="display: flex; align-items: unsafe center; justify-content: unsafe center; width: 78px; height: 1px; padding-top: 80px; margin-left: 1px;"><div style="box-sizing: border-box; font-size: 0; text-align: center; color: #000000; "><div style="display: inline-block; font-size: 14px; font-family: &quot;Helvetica&quot;; color: light-dark(#000000, #ffffff); line-height: 1.2; pointer-events: all; white-space: normal; word-wrap: normal; "><div><font style="color: light-dark(rgb(102, 102, 102), rgb(149, 149, 149));" face="Times New Roman">Signal</font></div><div><font style="color: light-dark(rgb(102, 102, 102), rgb(149, 149, 149));" face="Times New Roman"><i style="">x</i>[t]</font></div></div></div></div></foreignObject><text x="40" y="84" fill="light-dark(#000000, #ffffff)" font-family="&quot;Helvetica&quot;" font-size="14px" text-anchor="middle">Signal...</text></switch></g></g><g><rect x="0" y="160" width="80" height="180" fill="none" stroke="none" pointer-events="all"/></g><g><g transform="translate(-0.5 -0.5)"><switch><foreignObject style="overflow: visible; text-align: left;" pointer-events="none" width="100%" height="100%" requiredFeatures="http://www.w3.org/TR/SVG11/feature#Extensibility"><div xmlns="http://www.w3.org/1999/xhtml" style="display: flex; align-items: unsafe center; justify-content: unsafe center; width: 78px; height: 1px; padding-top: 250px; margin-left: 1px;"><div style="box-sizing: border-box; font-size: 0; text-align: center; color: #666666; "><div style="display: inline-block; font-size: 14px; font-family: &quot;Times New Roman&quot;; color: light-dark(#666666, #959595); line-height: 1.2; pointer-events: all; white-space: normal; word-wrap: normal; "><div>Window</div><div><i style="">w</i>[t]</div></div></div></div></foreignObject><text x="40" y="254" fill="#666666" font-family="&quot;Times New Roman&quot;" font-size="14px" text-anchor="middle">Window...</text></switch></g></g><g><path d="M 80 230 L 140 230" fill="none" stroke="#000000" stroke-miterlimit="10" pointer-events="stroke" style="stroke: light-dark(rgb(0, 0, 0), rgb(255, 255, 255));"/><path d="M 80 226 L 80 234" fill="none" stroke="#000000" stroke-miterlimit="10" pointer-events="all" style="stroke: light-dark(rgb(0, 0, 0), rgb(255, 255, 255));"/><path d="M 140 234 L 140 226" fill="none" stroke="#000000" stroke-miterlimit="10" pointer-events="all" style="stroke: light-dark(rgb(0, 0, 0), rgb(255, 255, 255));"/></g><g><rect x="80" y="200" width="60" height="30" fill="none" stroke="none" pointer-events="all"/></g><g><g transform="translate(-0.5 -0.5)"><switch><foreignObject style="overflow: visible; text-align: left;" pointer-events="none" width="100%" height="100%" requiredFeatures="http://www.w3.org/TR/SVG11/feature#Extensibility"><div xmlns="http://www.w3.org/1999/xhtml" style="display: flex; align-items: unsafe center; justify-content: unsafe center; width: 58px; height: 1px; padding-top: 215px; margin-left: 81px;"><div style="box-sizing: border-box; font-size: 0; text-align: center; color: #000000; "><div style="display: inline-block; font-size: 12px; font-family: &quot;Times New Roman&quot;; color: light-dark(#000000, #ffffff); line-height: 1.2; pointer-events: all; white-space: normal; word-wrap: normal; ">Hop Length <i style="color: light-dark(rgb(63, 63, 63), rgb(183, 183, 183)); background-color: transparent;">H</i></div></div></div></foreignObject><text x="110" y="219" fill="light-dark(#000000, #ffffff)" font-family="&quot;Times New Roman&quot;" font-size="12px" text-anchor="middle">Hop Length...</text></switch></g></g><g><path d="M 140 320 Q 170 320 205 265 Q 240 210 275 265 Q 310 320 340 320" fill="none" stroke="#10739e" stroke-opacity="0.4" stroke-width="5" stroke-miterlimit="10" pointer-events="stroke" style="stroke: light-dark(rgb(16, 115, 158), rgb(84, 169, 206));"/></g><g><path d="M 200 320 Q 230 320 265 265 Q 300 210 335 265 Q 370 320 400 320" fill="none" stroke="#0e8088" stroke-opacity="0.4" stroke-width="5" stroke-miterlimit="10" pointer-events="stroke" style="stroke: light-dark(rgb(14, 128, 136), rgb(70, 168, 175));"/></g><g><path d="M 260 320 Q 290 320 325 265 Q 360 210 395 265 Q 430 320 460 320" fill="none" stroke="#b46504" stroke-opacity="0.4" stroke-width="5" stroke-miterlimit="10" pointer-events="stroke" style="stroke: light-dark(rgb(180, 101, 4), rgb(201, 133, 49));"/></g><g><path d="M 320 320 Q 350 320 385 265 Q 420 210 455 265 Q 490 320 520 320" fill="none" stroke="#ae4132" stroke-opacity="0.4" stroke-width="5" stroke-miterlimit="10" pointer-events="stroke" style="stroke: light-dark(rgb(174, 65, 50), rgb(236, 143, 130));"/></g><g/><g><path d="M 80 714.29 Q 100 725.71 115 702.86 Q 130 680 150 714.29" fill="none" stroke="#56517e" stroke-miterlimit="10" pointer-events="stroke" style="stroke: light-dark(rgb(86, 81, 126), rgb(164, 160, 198));"/></g><g><path d="M 150 714.29 Q 190 800 200 720 Q 210 640 220 714.29" fill="none" stroke="#56517e" stroke-miterlimit="10" pointer-events="stroke" style="stroke: light-dark(rgb(86, 81, 126), rgb(164, 160, 198));"/></g><g><path d="M 220 714.29 Q 230 748.57 240 722.86 Q 250 697.14 260 714.29" fill="none" stroke="#56517e" stroke-miterlimit="10" pointer-events="stroke" style="stroke: light-dark(rgb(86, 81, 126), rgb(164, 160, 198));"/></g><g><path d="M 260 714.29 Q 270 720 275 714.29 Q 280 708.57 290 714.29" fill="none" stroke="#000000" stroke-miterlimit="10" pointer-events="stroke" style="stroke: light-dark(rgb(0, 0, 0), rgb(255, 255, 255));"/></g><g/><g><path d="M 160 642.58 Q 190 663.23 200 621.94 Q 210 580.65 220 642.58" fill="none" stroke="#10739e" stroke-miterlimit="10" pointer-events="stroke" style="stroke: light-dark(rgb(16, 115, 158), rgb(84, 169, 206));"/></g><g><path d="M 220 642.58 Q 230 720 240 640 Q 250 560 260 642.58" fill="none" stroke="#10739e" stroke-miterlimit="10" pointer-events="stroke" style="stroke: light-dark(rgb(16, 115, 158), rgb(84, 169, 206));"/></g><g><path d="M 260 642.58 Q 270 704.52 275 647.74 Q 280 590.97 290 642.58" fill="none" stroke="#10739e" stroke-miterlimit="10" pointer-events="stroke" style="stroke: light-dark(rgb(16, 115, 158), rgb(84, 169, 206));"/></g><g><path d="M 290 642.58 Q 300 663.23 305 645.16 Q 310 627.1 320 642.58" fill="none" stroke="#10739e" stroke-miterlimit="10" pointer-events="stroke" style="stroke: light-dark(rgb(16, 115, 158), rgb(84, 169, 206));"/></g><g/><g><path d="M 260 480 Q 270 490 275 480 Q 280 470 290 480" fill="none" stroke="#b46504" stroke-miterlimit="10" pointer-events="stroke" style="stroke: light-dark(rgb(180, 101, 4), rgb(201, 133, 49));"/></g><g><path d="M 290 480 Q 300 510 305 480 Q 310 450 320 480" fill="none" stroke="#b46504" stroke-miterlimit="10" pointer-events="stroke" style="stroke: light-dark(rgb(180, 101, 4), rgb(201, 133, 49));"/></g><g><path d="M 320 480 Q 330 550 335 480 Q 340 410 340 480" fill="none" stroke="#b46504" stroke-miterlimit="10" pointer-events="stroke" style="stroke: light-dark(rgb(180, 101, 4), rgb(201, 133, 49));"/></g><g><path d="M 340 480 Q 340 560 345 480 Q 350 400 350 480" fill="none" stroke="#b46504" stroke-miterlimit="10" pointer-events="stroke" style="stroke: light-dark(rgb(180, 101, 4), rgb(201, 133, 49));"/></g><g><path d="M 350 480 Q 350 570 355 480 Q 360 390 360 480" fill="none" stroke="#b46504" stroke-miterlimit="10" pointer-events="stroke" style="stroke: light-dark(rgb(180, 101, 4), rgb(201, 133, 49));"/></g><g><path d="M 360 480 Q 360 570 365 480 Q 370 390 370 480" fill="none" stroke="#b46504" stroke-miterlimit="10" pointer-events="stroke" style="stroke: light-dark(rgb(180, 101, 4), rgb(201, 133, 49));"/></g><g><path d="M 370 480 Q 370 560 375 480 Q 380 400 380 480" fill="none" stroke="#b46504" stroke-miterlimit="10" pointer-events="stroke" style="stroke: light-dark(rgb(180, 101, 4), rgb(201, 133, 49));"/></g><g><path d="M 380 480 Q 380 550 385 480 Q 390 410 390 480" fill="none" stroke="#b46504" stroke-miterlimit="10" pointer-events="stroke" style="stroke: light-dark(rgb(180, 101, 4), rgb(201, 133, 49));"/></g><g><path d="M 390 480 Q 390 540 395 480 Q 400 420 400 480" fill="none" stroke="#b46504" stroke-miterlimit="10" pointer-events="stroke" style="stroke: light-dark(rgb(180, 101, 4), rgb(201, 133, 49));"/></g><g><path d="M 400 480 Q 400 530 405 485 Q 410 440 410 480" fill="none" stroke="#b46504" stroke-miterlimit="10" pointer-events="stroke" style="stroke: light-dark(rgb(180, 101, 4), rgb(201, 133, 49));"/></g><g><path d="M 410 480 Q 410 520 415 485 Q 420 450 420 480" fill="none" stroke="#b46504" stroke-miterlimit="10" pointer-events="stroke" style="stroke: light-dark(rgb(180, 101, 4), rgb(201, 133, 49));"/></g><g><path d="M 420 480 Q 420 510 425 485 Q 430 460 430 480" fill="none" stroke="#ae4132" stroke-miterlimit="10" pointer-events="stroke" style="stroke: light-dark(rgb(174, 65, 50), rgb(236, 143, 130));"/></g><g><path d="M 430 480 Q 430 500 435 485 Q 440 470 440 480" fill="none" stroke="#ae4132" stroke-miterlimit="10" pointer-events="stroke" style="stroke: light-dark(rgb(174, 65, 50), rgb(236, 143, 130));"/></g><g><path d="M 440 480 Q 440 490 445 480 Q 450 470 450 480" fill="none" stroke="#ae4132" stroke-miterlimit="10" pointer-events="stroke" style="stroke: light-dark(rgb(174, 65, 50), rgb(236, 143, 130));"/></g><g/><g><path d="M 220 560 Q 230 571.43 240 551.43 Q 250 531.43 260 560" fill="none" stroke="#0e8088" stroke-miterlimit="10" pointer-events="stroke" style="stroke: light-dark(rgb(14, 128, 136), rgb(70, 168, 175));"/></g><g><path d="M 260 560 Q 270 628.57 275 557.14 Q 280 485.71 290 560" fill="none" stroke="#0e8088" stroke-miterlimit="10" pointer-events="stroke" style="stroke: light-dark(rgb(14, 128, 136), rgb(70, 168, 175));"/></g><g><path d="M 290 560 Q 300 640 305 560 Q 310 480 320 560" fill="none" stroke="#0e8088" stroke-miterlimit="10" pointer-events="stroke" style="stroke: light-dark(rgb(14, 128, 136), rgb(70, 168, 175));"/></g><g><path d="M 320 560 Q 330 622.86 335 562.86 Q 340 502.86 340 560" fill="none" stroke="#0e8088" stroke-miterlimit="10" pointer-events="stroke" style="stroke: light-dark(rgb(14, 128, 136), rgb(70, 168, 175));"/></g><g><path d="M 340 560 Q 340 605.71 345 562.86 Q 350 520 350 560" fill="none" stroke="#0e8088" stroke-miterlimit="10" pointer-events="stroke" style="stroke: light-dark(rgb(14, 128, 136), rgb(70, 168, 175));"/></g><g><path d="M 350 560 Q 350 600 355 568.57 Q 360 537.14 360 560" fill="none" stroke="#0e8088" stroke-miterlimit="10" pointer-events="stroke" style="stroke: light-dark(rgb(14, 128, 136), rgb(70, 168, 175));"/></g><g><path d="M 360 560 Q 360 588.57 365 565.71 Q 370 542.86 370 560" fill="none" stroke="#0e8088" stroke-miterlimit="10" pointer-events="stroke" style="stroke: light-dark(rgb(14, 128, 136), rgb(70, 168, 175));"/></g><g><path d="M 370 560 Q 370 577.14 375 562.86 Q 380 548.57 380 560" fill="none" stroke="#0e8088" stroke-miterlimit="10" pointer-events="stroke" style="stroke: light-dark(rgb(14, 128, 136), rgb(70, 168, 175));"/></g><g><path d="M 380 560 Q 380 571.43 385 562.86 Q 390 554.29 390 560" fill="none" stroke="#0e8088" stroke-miterlimit="10" pointer-events="stroke" style="stroke: light-dark(rgb(14, 128, 136), rgb(70, 168, 175));"/></g><g/><g><path d="M 340 400 Q 340 410 345 400 Q 350 390 350 400" fill="none" stroke="#ae4132" stroke-miterlimit="10" pointer-events="stroke" style="stroke: light-dark(rgb(174, 65, 50), rgb(236, 143, 130));"/></g><g><path d="M 350 400 Q 350 420 355 400 Q 360 380 360 400" fill="none" stroke="#ae4132" stroke-miterlimit="10" pointer-events="stroke" style="stroke: light-dark(rgb(174, 65, 50), rgb(236, 143, 130));"/></g><g><path d="M 360 400 Q 360 430 365 400 Q 370 370 370 400" fill="none" stroke="#ae4132" stroke-miterlimit="10" pointer-events="stroke" style="stroke: light-dark(rgb(174, 65, 50), rgb(236, 143, 130));"/></g><g><path d="M 370 400 Q 370 440 375 400 Q 380 360 380 400" fill="none" stroke="#ae4132" stroke-miterlimit="10" pointer-events="stroke" style="stroke: light-dark(rgb(174, 65, 50), rgb(236, 143, 130));"/></g><g><path d="M 380 400 Q 380 450 385 400 Q 390 350 390 400" fill="none" stroke="#ae4132" stroke-miterlimit="10" pointer-events="stroke" style="stroke: light-dark(rgb(174, 65, 50), rgb(236, 143, 130));"/></g><g><path d="M 390 400 Q 390 460 395 400 Q 400 340 400 400" fill="none" stroke="#ae4132" stroke-miterlimit="10" pointer-events="stroke" style="stroke: light-dark(rgb(174, 65, 50), rgb(236, 143, 130));"/></g><g><path d="M 400 400 Q 400 470 405 400 Q 410 330 410 400" fill="none" stroke="#ae4132" stroke-miterlimit="10" pointer-events="stroke" style="stroke: light-dark(rgb(174, 65, 50), rgb(236, 143, 130));"/></g><g><path d="M 410 400 Q 410 480 415 400 Q 420 320 420 400" fill="none" stroke="#ae4132" stroke-miterlimit="10" pointer-events="stroke" style="stroke: light-dark(rgb(174, 65, 50), rgb(236, 143, 130));"/></g><g><path d="M 420 400 Q 420 490 425 405 Q 430 320 430 400" fill="none" stroke="#ae4132" stroke-miterlimit="10" pointer-events="stroke" style="stroke: light-dark(rgb(174, 65, 50), rgb(236, 143, 130));"/></g><g><path d="M 430 400 Q 430 480 435 405 Q 440 330 440 400" fill="none" stroke="#ae4132" stroke-miterlimit="10" pointer-events="stroke" style="stroke: light-dark(rgb(174, 65, 50), rgb(236, 143, 130));"/></g><g><path d="M 440 400 Q 440 470 445 405 Q 450 340 450 400" fill="none" stroke="#ae4132" stroke-miterlimit="10" pointer-events="stroke" style="stroke: light-dark(rgb(174, 65, 50), rgb(236, 143, 130));"/></g><g><path d="M 450 400 Q 450 460 455 405 Q 460 350 460 400" fill="none" stroke="#ae4132" stroke-miterlimit="10" pointer-events="stroke" style="stroke: light-dark(rgb(174, 65, 50), rgb(236, 143, 130));"/></g><g><path d="M 460 400 Q 460 440 465 405 Q 470 370 470 400" fill="none" stroke="#ae4132" stroke-miterlimit="10" pointer-events="stroke" style="stroke: light-dark(rgb(174, 65, 50), rgb(236, 143, 130));"/></g><g><path d="M 470 400 Q 470 430 475 405 Q 480 380 480 400" fill="none" stroke="#ae4132" stroke-miterlimit="10" pointer-events="stroke" style="stroke: light-dark(rgb(174, 65, 50), rgb(236, 143, 130));"/></g><g><path d="M 480 400 Q 480 420 485 405 Q 490 390 490 400" fill="none" stroke="#ae4132" stroke-miterlimit="10" pointer-events="stroke" style="stroke: light-dark(rgb(174, 65, 50), rgb(236, 143, 130));"/></g><g><path d="M 490 400 Q 490 410 495 400 Q 500 390 500 400" fill="none" stroke="#ae4132" stroke-miterlimit="10" pointer-events="stroke" style="stroke: light-dark(rgb(174, 65, 50), rgb(236, 143, 130));"/></g><g><path d="M 80 318 L 80 190" fill="none" stroke="#000000" stroke-width="2" stroke-miterlimit="10" stroke-dasharray="2 6" pointer-events="stroke" style="stroke: light-dark(rgb(0, 0, 0), rgb(255, 255, 255));"/></g><g><path d="M 280 318 L 280 190" fill="none" stroke="#000000" stroke-width="2" stroke-miterlimit="10" stroke-dasharray="2 6" pointer-events="stroke" style="stroke: light-dark(rgb(0, 0, 0), rgb(255, 255, 255));"/></g><g><path d="M 140 320 L 140 230" fill="none" stroke="#000000" stroke-width="2" stroke-miterlimit="10" stroke-dasharray="2 6" pointer-events="stroke" style="stroke: light-dark(rgb(0, 0, 0), rgb(255, 255, 255));"/></g><g><path d="M 210 260 L 210 230" fill="none" stroke="#000000" stroke-width="2" stroke-miterlimit="10" stroke-dasharray="2 6" pointer-events="stroke" style="stroke: light-dark(rgb(0, 0, 0), rgb(255, 255, 255));"/></g><g><path d="M 97 341 L 103 341 L 103 679 L 114 679 L 100 699 L 86 679 L 97 679 Z" fill="#d0cee2" stroke="none" pointer-events="all" style="fill: light-dark(rgb(208, 206, 226), rgb(59, 57, 74));"/></g><g><path d="M 157 341 L 163 341 L 163 609 L 174 609 L 160 629 L 146 609 L 157 609 Z" fill="#b1ddf0" stroke="none" pointer-events="all" style="fill: light-dark(rgb(177, 221, 240), rgb(23, 61, 77));"/></g><g><path d="M 217 341 L 223 341 L 223 519 L 234 519 L 220 539 L 206 519 L 217 519 Z" fill="#b0e3e6" stroke="none" pointer-events="all" style="fill: light-dark(rgb(176, 227, 230), rgb(16, 60, 63));"/></g><g><path d="M 277 341 L 283 341 L 283 439 L 294 439 L 280 459 L 266 439 L 277 439 Z" fill="#fad7ac" stroke="none" pointer-events="all" style="fill: light-dark(rgb(250, 215, 172), rgb(75, 45, 8));"/></g><g><path d="M 337 341 L 343 341 L 343 359 L 354 359 L 340 379 L 326 359 L 337 359 Z" fill="#fad9d5" stroke="none" pointer-events="all" style="fill: light-dark(rgb(250, 217, 213), rgb(68, 39, 36));"/></g><g><path d="M 321 723 L 321 717 L 539 717 L 539 706 L 559 720 L 539 734 L 539 723 Z" fill="#d0cee2" stroke="none" pointer-events="all" style="fill: light-dark(rgb(208, 206, 226), rgb(59, 57, 74));"/></g><g><path d="M 361 643 L 361 637 L 539 637 L 539 626 L 559 640 L 539 654 L 539 643 Z" fill="#b1ddf0" stroke="none" pointer-events="all" style="fill: light-dark(rgb(177, 221, 240), rgb(23, 61, 77));"/></g><g><path d="M 441 563 L 441 557 L 539 557 L 539 546 L 559 560 L 539 574 L 539 563 Z" fill="#b0e3e6" stroke="none" pointer-events="all" style="fill: light-dark(rgb(176, 227, 230), rgb(16, 60, 63));"/></g><g><path d="M 481 483 L 481 477 L 539 477 L 539 466 L 559 480 L 539 494 L 539 483 Z" fill="#fad7ac" stroke="none" pointer-events="all" style="fill: light-dark(rgb(250, 215, 172), rgb(75, 45, 8));"/></g><g><path d="M 521 403 L 521 397 L 539 397 L 539 386 L 559 400 L 539 414 L 539 403 Z" fill="#fad9d5" stroke="none" pointer-events="all" style="fill: light-dark(rgb(250, 217, 213), rgb(68, 39, 36));"/></g><g><rect x="520" y="360" width="40" height="30" fill="none" stroke="none" pointer-events="all"/></g><g><g transform="translate(-0.5 -0.5)"><switch><foreignObject style="overflow: visible; text-align: left;" pointer-events="none" width="100%" height="100%" requiredFeatures="http://www.w3.org/TR/SVG11/feature#Extensibility"><div xmlns="http://www.w3.org/1999/xhtml" style="display: flex; align-items: unsafe center; justify-content: unsafe center; width: 38px; height: 1px; padding-top: 375px; margin-left: 521px;"><div style="box-sizing: border-box; font-size: 0; text-align: center; color: #000000; "><div style="display: inline-block; font-size: 12px; font-family: &quot;Times New Roman&quot;; color: light-dark(#000000, #ffffff); line-height: 1.2; pointer-events: all; white-space: normal; word-wrap: normal; ">DFT</div></div></div></foreignObject><text x="540" y="379" fill="light-dark(#000000, #ffffff)" font-family="&quot;Times New Roman&quot;" font-size="12px" text-anchor="middle">DFT</text></switch></g></g><g><rect x="520" y="440" width="40" height="30" fill="none" stroke="none" pointer-events="all"/></g><g><g transform="translate(-0.5 -0.5)"><switch><foreignObject style="overflow: visible; text-align: left;" pointer-events="none" width="100%" height="100%" requiredFeatures="http://www.w3.org/TR/SVG11/feature#Extensibility"><div xmlns="http://www.w3.org/1999/xhtml" style="display: flex; align-items: unsafe center; justify-content: unsafe center; width: 38px; height: 1px; padding-top: 455px; margin-left: 521px;"><div style="box-sizing: border-box; font-size: 0; text-align: center; color: #000000; "><div style="display: inline-block; font-size: 12px; font-family: &quot;Times New Roman&quot;; color: light-dark(#000000, #ffffff); line-height: 1.2; pointer-events: all; white-space: normal; word-wrap: normal; ">DFT</div></div></div></foreignObject><text x="540" y="459" fill="light-dark(#000000, #ffffff)" font-family="&quot;Times New Roman&quot;" font-size="12px" text-anchor="middle">DFT</text></switch></g></g><g><rect x="520" y="520" width="40" height="30" fill="none" stroke="none" pointer-events="all"/></g><g><g transform="translate(-0.5 -0.5)"><switch><foreignObject style="overflow: visible; text-align: left;" pointer-events="none" width="100%" height="100%" requiredFeatures="http://www.w3.org/TR/SVG11/feature#Extensibility"><div xmlns="http://www.w3.org/1999/xhtml" style="display: flex; align-items: unsafe center; justify-content: unsafe center; width: 38px; height: 1px; padding-top: 535px; margin-left: 521px;"><div style="box-sizing: border-box; font-size: 0; text-align: center; color: #000000; "><div style="display: inline-block; font-size: 12px; font-family: &quot;Times New Roman&quot;; color: light-dark(#000000, #ffffff); line-height: 1.2; pointer-events: all; white-space: normal; word-wrap: normal; ">DFT</div></div></div></foreignObject><text x="540" y="539" fill="light-dark(#000000, #ffffff)" font-family="&quot;Times New Roman&quot;" font-size="12px" text-anchor="middle">DFT</text></switch></g></g><g><rect x="520" y="600" width="40" height="30" fill="none" stroke="none" pointer-events="all"/></g><g><g transform="translate(-0.5 -0.5)"><switch><foreignObject style="overflow: visible; text-align: left;" pointer-events="none" width="100%" height="100%" requiredFeatures="http://www.w3.org/TR/SVG11/feature#Extensibility"><div xmlns="http://www.w3.org/1999/xhtml" style="display: flex; align-items: unsafe center; justify-content: unsafe center; width: 38px; height: 1px; padding-top: 615px; margin-left: 521px;"><div style="box-sizing: border-box; font-size: 0; text-align: center; color: #000000; "><div style="display: inline-block; font-size: 12px; font-family: &quot;Times New Roman&quot;; color: light-dark(#000000, #ffffff); line-height: 1.2; pointer-events: all; white-space: normal; word-wrap: normal; ">DFT</div></div></div></foreignObject><text x="540" y="619" fill="light-dark(#000000, #ffffff)" font-family="&quot;Times New Roman&quot;" font-size="12px" text-anchor="middle">DFT</text></switch></g></g><g><rect x="520" y="680" width="40" height="30" fill="none" stroke="none" pointer-events="all"/></g><g><g transform="translate(-0.5 -0.5)"><switch><foreignObject style="overflow: visible; text-align: left;" pointer-events="none" width="100%" height="100%" requiredFeatures="http://www.w3.org/TR/SVG11/feature#Extensibility"><div xmlns="http://www.w3.org/1999/xhtml" style="display: flex; align-items: unsafe center; justify-content: unsafe center; width: 38px; height: 1px; padding-top: 695px; margin-left: 521px;"><div style="box-sizing: border-box; font-size: 0; text-align: center; color: #000000; "><div style="display: inline-block; font-size: 12px; font-family: &quot;Times New Roman&quot;; color: light-dark(#000000, #ffffff); line-height: 1.2; pointer-events: all; white-space: normal; word-wrap: normal; ">DFT</div></div></div></foreignObject><text x="540" y="699" fill="light-dark(#000000, #ffffff)" font-family="&quot;Times New Roman&quot;" font-size="12px" text-anchor="middle">DFT</text></switch></g></g><g><rect x="570" y="700" width="60" height="30" fill="none" stroke="none" pointer-events="all"/></g><g><g transform="translate(-0.5 -0.5)"><switch><foreignObject style="overflow: visible; text-align: left;" pointer-events="none" width="100%" height="100%" requiredFeatures="http://www.w3.org/TR/SVG11/feature#Extensibility"><div xmlns="http://www.w3.org/1999/xhtml" style="display: flex; align-items: unsafe center; justify-content: unsafe center; width: 58px; height: 1px; padding-top: 715px; margin-left: 571px;"><div style="box-sizing: border-box; font-size: 0; text-align: center; color: #000000; "><div style="display: inline-block; font-size: 14px; font-family: &quot;Times New Roman&quot;; color: light-dark(#000000, #ffffff); line-height: 1.2; pointer-events: all; white-space: normal; word-wrap: normal; "><i>X</i>[<i>k, m</i>]</div></div></div></foreignObject><text x="600" y="719" fill="light-dark(#000000, #ffffff)" font-family="&quot;Times New Roman&quot;" font-size="14px" text-anchor="middle">X[k, m]</text></switch></g></g><g><rect x="570" y="620" width="70" height="30" fill="none" stroke="none" pointer-events="all"/></g><g><g transform="translate(-0.5 -0.5)"><switch><foreignObject style="overflow: visible; text-align: left;" pointer-events="none" width="100%" height="100%" requiredFeatures="http://www.w3.org/TR/SVG11/feature#Extensibility"><div xmlns="http://www.w3.org/1999/xhtml" style="display: flex; align-items: unsafe center; justify-content: unsafe center; width: 68px; height: 1px; padding-top: 635px; margin-left: 571px;"><div style="box-sizing: border-box; font-size: 0; text-align: center; color: #000000; "><div style="display: inline-block; font-size: 14px; font-family: &quot;Times New Roman&quot;; color: light-dark(#000000, #ffffff); line-height: 1.2; pointer-events: all; white-space: normal; word-wrap: normal; "><i>X</i>[<i>k, m+</i>1]</div></div></div></foreignObject><text x="605" y="639" fill="light-dark(#000000, #ffffff)" font-family="&quot;Times New Roman&quot;" font-size="14px" text-anchor="middle">X[k, m+1]</text></switch></g></g><g><rect x="570" y="540" width="70" height="30" fill="none" stroke="none" pointer-events="all"/></g><g><g transform="translate(-0.5 -0.5)"><switch><foreignObject style="overflow: visible; text-align: left;" pointer-events="none" width="100%" height="100%" requiredFeatures="http://www.w3.org/TR/SVG11/feature#Extensibility"><div xmlns="http://www.w3.org/1999/xhtml" style="display: flex; align-items: unsafe center; justify-content: unsafe center; width: 68px; height: 1px; padding-top: 555px; margin-left: 571px;"><div style="box-sizing: border-box; font-size: 0; text-align: center; color: #000000; "><div style="display: inline-block; font-size: 14px; font-family: &quot;Times New Roman&quot;; color: light-dark(#000000, #ffffff); line-height: 1.2; pointer-events: all; white-space: normal; word-wrap: normal; "><i>X</i>[<i>k, m+</i>2]</div></div></div></foreignObject><text x="605" y="559" fill="light-dark(#000000, #ffffff)" font-family="&quot;Times New Roman&quot;" font-size="14px" text-anchor="middle">X[k, m+2]</text></switch></g></g><g><rect x="570" y="460" width="70" height="30" fill="none" stroke="none" pointer-events="all"/></g><g><g transform="translate(-0.5 -0.5)"><switch><foreignObject style="overflow: visible; text-align: left;" pointer-events="none" width="100%" height="100%" requiredFeatures="http://www.w3.org/TR/SVG11/feature#Extensibility"><div xmlns="http://www.w3.org/1999/xhtml" style="display: flex; align-items: unsafe center; justify-content: unsafe center; width: 68px; height: 1px; padding-top: 475px; margin-left: 571px;"><div style="box-sizing: border-box; font-size: 0; text-align: center; color: #000000; "><div style="display: inline-block; font-size: 14px; font-family: &quot;Times New Roman&quot;; color: light-dark(#000000, #ffffff); line-height: 1.2; pointer-events: all; white-space: normal; word-wrap: normal; "><i>X</i>[<i>k, m+</i>3]</div></div></div></foreignObject><text x="605" y="479" fill="light-dark(#000000, #ffffff)" font-family="&quot;Times New Roman&quot;" font-size="14px" text-anchor="middle">X[k, m+3]</text></switch></g></g><g><rect x="570" y="380" width="70" height="30" fill="none" stroke="none" pointer-events="all"/></g><g><g transform="translate(-0.5 -0.5)"><switch><foreignObject style="overflow: visible; text-align: left;" pointer-events="none" width="100%" height="100%" requiredFeatures="http://www.w3.org/TR/SVG11/feature#Extensibility"><div xmlns="http://www.w3.org/1999/xhtml" style="display: flex; align-items: unsafe center; justify-content: unsafe center; width: 68px; height: 1px; padding-top: 395px; margin-left: 571px;"><div style="box-sizing: border-box; font-size: 0; text-align: center; color: #000000; "><div style="display: inline-block; font-size: 14px; font-family: &quot;Times New Roman&quot;; color: light-dark(#000000, #ffffff); line-height: 1.2; pointer-events: all; white-space: normal; word-wrap: normal; "><i>X</i>[<i>k, m+</i>4]</div></div></div></foreignObject><text x="605" y="399" fill="light-dark(#000000, #ffffff)" font-family="&quot;Times New Roman&quot;" font-size="14px" text-anchor="middle">X[k, m+4]</text></switch></g></g></g><switch><g requiredFeatures="http://www.w3.org/TR/SVG11/feature#Extensibility"/><a transform="translate(0,-5)" xlink:href="https://www.drawio.com/doc/faq/svg-export-text-problems" target="_blank"><text text-anchor="middle" font-size="10px" x="50%" y="100%">Text is not SVG - cannot display</text></a></switch></svg>